/* XPM */
static char * active_icon_0_xpm[] = {
"16 16 10 1",
" 	c None",
".	c #000000",
"+	c #FFFFFF",
"@	c #808080",
"#	c #C0C0FF",
"$	c #C0C0C0",
"%	c #FFC0C0",
"&	c #C00000",
"*	c #797979",
"=	c #757575",
" .............. ",
".++++++@++++++@.",
".+#++++@+++++#@.",
".++++++@++++++@.",
".+$$$$...+$$$$@.",
".+#++++@+++++#@.",
".+++++$%$+++++@.",
".+++++$&$+++++@.",
".++++++.++++++*.",
".+#++++@+++++#@.",
".++++++$++++++@.",
".+$$$$+$++$$$$@.",
".+#++++@+++++#@.",
".++++++*++++++@.",
".@@@@**=*@**@@@.",
" .............. "};
