<?xml version="1.0" encoding="UTF-8" standalone="no"?>
<!-- Created with Inkscape (http://www.inkscape.org/) -->
<svg
   xmlns:dc="http://purl.org/dc/elements/1.1/"
   xmlns:cc="http://creativecommons.org/ns#"
   xmlns:rdf="http://www.w3.org/1999/02/22-rdf-syntax-ns#"
   xmlns:svg="http://www.w3.org/2000/svg"
   xmlns="http://www.w3.org/2000/svg"
   xmlns:sodipodi="http://sodipodi.sourceforge.net/DTD/sodipodi-0.dtd"
   xmlns:inkscape="http://www.inkscape.org/namespaces/inkscape"
   version="1.0"
   width="227"
   height="283"
   id="svg2"
   sodipodi:version="0.32"
   inkscape:version="0.46"
   sodipodi:docname="Trasker_logo_check_paw.svg"
   inkscape:output_extension="org.inkscape.output.svg.inkscape">
  <metadata
     id="metadata9">
    <rdf:RDF>
      <cc:Work
         rdf:about="">
        <dc:format>image/svg+xml</dc:format>
        <dc:type
           rdf:resource="http://purl.org/dc/dcmitype/StillImage" />
      </cc:Work>
    </rdf:RDF>
  </metadata>
  <sodipodi:namedview
     inkscape:window-height="678"
     inkscape:window-width="705"
     inkscape:pageshadow="2"
     inkscape:pageopacity="0.0"
     guidetolerance="10.0"
     gridtolerance="10.0"
     objecttolerance="10.0"
     borderopacity="1.0"
     bordercolor="#666666"
     pagecolor="#ffffff"
     id="base"
     showgrid="false"
     inkscape:zoom="0.81978799"
     inkscape:cx="113.5"
     inkscape:cy="141.5"
     inkscape:window-x="329"
     inkscape:window-y="204"
     inkscape:current-layer="g3189" />
  <defs
     id="defs4">
    <inkscape:perspective
       sodipodi:type="inkscape:persp3d"
       inkscape:vp_x="0 : 141.5 : 1"
       inkscape:vp_y="0 : 1000 : 0"
       inkscape:vp_z="227 : 141.5 : 1"
       inkscape:persp3d-origin="113.5 : 94.333333 : 1"
       id="perspective11" />
  </defs>
  <g
     inkscape:groupmode="layer"
     id="layer5"
     inkscape:label="Check Box">
    <rect
       style="fill:none;fill-rule:evenodd;stroke:#0059cf;stroke-width:12;stroke-linecap:butt;stroke-linejoin:miter;stroke-miterlimit:4;stroke-dasharray:none;stroke-opacity:0.29343629"
       id="rect2415"
       y="116.63409"
       x="23.9272"
       height="147.31801"
       width="147.31801" />
  </g>
  <g
     inkscape:groupmode="layer"
     id="layer3"
     inkscape:label="Fox Print">
    <path
       style="fill:#000000"
       d="M 153.5624,263.81022 C 145.30925,259.11181 134.30875,258.06452 124.66554,260.41408 C 113.07786,265.30406 102.64168,254.69369 91.589152,258.58177 C 83.310552,262.32024 72.151007,267.5847 64.763737,259.49422 C 55.119766,252.32553 61.100244,239.29677 67.044481,231.79102 C 73.31636,222.6948 81.629977,214.99555 87.17756,205.59697 C 94.680611,199.32579 99.653936,187.26638 110.03957,185.77321 C 121.84471,183.47189 130.97988,191.78267 134.82796,201.83825 C 143.03934,209.27939 148.37541,218.86242 158.07148,224.62047 C 164.63599,232.71306 175.90711,239.49459 177.43708,250.17309 C 177.621,259.09538 166.04627,264.71551 157.80537,264.53012 C 156.62259,264.29235 153.9914,265.41839 153.5624,263.81022 z M 46.044108,193.87738 C 35.648478,189.78501 26.929838,180.24128 26.090038,168.72099 C 21.904818,158.78942 18.825378,149.57261 27.111398,140.48665 C 33.972148,131.56818 45.908388,137.23827 54.246526,140.83961 C 65.679114,142.51746 73.297269,152.10257 77.418468,162.07787 C 79.430007,172.66586 71.623511,183.3573 62.898326,188.44067 C 58.474572,192.66381 52.123428,195.37105 46.044108,193.87738 z M 161.40832,183.88004 C 151.47189,181.24658 142.03155,177.07554 136.32289,168.0357 C 133.60588,157.47784 151.18849,156.73222 154.28067,147.33142 C 162.7241,139.28406 172.6683,132.80694 182.1385,125.91757 C 188.90029,117.45979 200.7583,129.45587 198.48248,137.96211 C 198.23828,143.4164 200.04111,149.26981 196.87013,154.15499 C 193.13768,162.73653 192.2538,176.491 181.62695,178.59648 C 176.27406,184.05293 168.75,185.06218 161.40832,183.88004 z M 25.504698,125.90738 C 22.692498,123.55688 25.843778,106.40564 28.364198,112.30581 C 29.288638,117.01039 35.980978,129.15918 25.504698,125.90738 z M 82.655527,121.64903 C 73.882767,118.58181 64.066708,110.1121 65.065592,100.0186 C 67.802427,89.956313 71.10833,80.102535 77.739779,71.769641 C 82.162878,61.651177 89.33372,51.497365 100.14375,47.451718 C 113.19969,47.031513 110.86796,64.418732 109.57797,73.090657 C 108.33793,80.988555 110.3672,89.273241 108.79757,97.030772 C 105.75133,105.11601 103.75035,113.75901 98.916122,121.0186 C 93.927779,122.95203 87.905354,122.19314 82.655527,121.64903 z M 143.22276,116.69529 C 135.40253,115.32348 131.3576,107.79996 128.86617,101.14443 C 129.0955,87.098756 128.68553,73.023467 129.56622,59.003093 C 131.06146,46.896314 148.53781,44.135291 155.13247,53.519715 C 161.86226,59.424327 164.56038,67.085662 168.35148,75.340213 C 172.66086,83.732219 179.58014,94.72597 173.33478,103.71342 C 169.59223,108.23952 164.80134,112.12037 161.63989,114.83454 C 156.76173,119.13153 149.03174,118.20859 143.22276,116.69529 z M 191.10776,111.85416 C 185.79707,104.25437 195.61334,92.930926 198.80591,105.44738 C 202.40836,114.3725 196.50723,113.28294 191.10776,111.85416 z M 105.32446,32.457618 C 102.15854,25.799104 108.90372,21.306349 111.47158,16.161353 C 113.78203,19.937929 115.53729,37.773348 105.32446,32.457618 z M 127.4093,31.045089 C 121.04263,28.36772 130.65708,20.475437 129.99176,15.866263 C 133.84249,18.996043 135.69928,33.880908 127.4093,31.045089 z"
       id="path2220" />
  </g>
  <g
     id="g3189"
     transform="translate(-362.4377,-506.66787)">
    <path
       style="fill:#fe0000;fill-opacity:0.76833975;fill-rule:evenodd;stroke:none;stroke-width:1px;stroke-linecap:butt;stroke-linejoin:miter;stroke-opacity:1"
       id="path3187"
       transform="translate(346.5,510.862)"
       d="M 40.263613,171.43624 C 60.745466,151.69966 74.655448,140.1201 91.851366,124.46203 C 91.851366,124.46203 109.88611,166.40329 117.01612,196.601 C 149.73031,101.81374 175.31448,40.998912 223.96634,0.31588737 C 220.61104,47.290102 218.09457,64.486019 226.48282,103.49139 C 196.70452,118.59025 154.76326,191.14863 120.79084,267.06232 C 86.399004,209.18338 57.45953,180.24391 40.263613,171.43624 z" />
  </g>
  <g
     inkscape:groupmode="layer"
     id="layer2"
     inkscape:label="Check Mark" />
</svg>
